<?xml version="1.0" standalone="no"?>
<!DOCTYPE svg PUBLIC "-//W3C//DTD SVG 20010904//EN"
 "http://www.w3.org/TR/2001/REC-SVG-20010904/DTD/svg10.dtd">
<svg version="1.0" xmlns="http://www.w3.org/2000/svg"
 width="225.000000pt" height="225.000000pt" viewBox="0 0 225.000000 225.000000"
 preserveAspectRatio="xMidYMid meet">
<metadata>
Created by potrace 1.11, written by Peter Selinger 2001-2013
</metadata>
<g transform="translate(0.000000,225.000000) scale(0.100000,-0.100000)"
fill="#000000" stroke="none">
<path d="M1290 1739 c-190 -73 -191 -73 -299 -59 -118 16 -227 9 -343 -20
-119 -31 -180 -63 -232 -122 -85 -97 -193 -323 -295 -613 -34 -98 -50 -128
-83 -162 l-42 -43 45 -112 45 -113 78 -3 c99 -4 131 17 86 55 -11 10 -20 27
-20 39 0 17 8 23 42 28 77 12 200 78 314 168 8 6 27 -14 58 -59 37 -55 48 -80
54 -128 7 -59 8 -61 52 -83 38 -19 60 -22 162 -22 101 0 120 2 125 16 11 29
-12 49 -59 54 l-46 5 53 104 52 104 26 -57 c19 -41 27 -75 27 -113 0 -47 4
-59 30 -84 l29 -30 138 3 138 3 0 25 c0 18 -7 27 -30 34 -16 6 -31 11 -33 12
-1 1 4 59 13 130 8 71 15 134 15 139 0 6 13 18 28 27 l28 17 27 -62 c37 -85
104 -159 175 -193 31 -16 89 -52 128 -81 l72 -54 138 3 c128 3 139 4 142 22 5
24 -23 46 -59 46 -35 0 -57 29 -133 175 -32 61 -71 128 -87 149 -23 32 -29 51
-29 90 0 50 -11 134 -25 189 l-7 27 90 0 c63 0 93 4 101 14 7 8 44 16 97 20
123 10 128 13 154 92 l23 68 -26 20 c-15 12 -40 31 -57 44 -19 15 -30 33 -30
48 0 63 -62 134 -161 189 -28 15 -61 38 -74 51 -31 31 -91 33 -128 4 -14 -11
-30 -20 -37 -20 -7 0 -43 -10 -81 -21 l-70 -21 -62 38 c-79 49 -152 56 -237
23z"/>
</g>
</svg>
